<?xml version="1.0" encoding="UTF-8" standalone="no"?>
<!DOCTYPE svg PUBLIC "-//W3C//DTD SVG 1.1//EN"
 "http://www.w3.org/Graphics/SVG/1.1/DTD/svg11.dtd">
<!-- Generated by graphviz version 2.40.1 (20161225.0304)
 -->
<!-- Title: models_diagram Pages: 1 -->
<svg width="732pt" height="836pt"
 viewBox="0.00 0.00 732.00 836.00" xmlns="http://www.w3.org/2000/svg" xmlns:xlink="http://www.w3.org/1999/xlink">
<g id="graph0" class="graph" transform="scale(1 1) rotate(0) translate(36 800)">
<title>models_diagram</title>
<polygon fill="#ffffff" stroke="transparent" points="-36,36 -36,-800 696,-800 696,36 -36,36"/>
<!-- Audits -->
<g id="node1" class="node">
<title>Audits</title>
<polygon fill="#add8e6" stroke="transparent" points="1,-742 1,-764 114,-764 114,-742 1,-742"/>
<polygon fill="none" stroke="#000000" points="1,-742 1,-764 114,-764 114,-742 1,-742"/>
<text text-anchor="start" x="44.167" y="-750" font-family="Times,serif" font-size="10.00" fill="#000000">Audits</text>
<polygon fill="none" stroke="#000000" points="1,-720 1,-742 114,-742 114,-720 1,-720"/>
<text text-anchor="start" x="6" y="-728" font-family="Times,serif" font-size="10.00" fill="#000000">id: NUMBER</text>
<polygon fill="none" stroke="#000000" points="1,-698 1,-720 114,-720 114,-698 1,-698"/>
<text text-anchor="start" x="6" y="-706" font-family="Times,serif" font-size="10.00" fill="#000000">record_status: ENUM</text>
<polygon fill="none" stroke="#000000" points="1,-676 1,-698 114,-698 114,-676 1,-676"/>
<text text-anchor="start" x="6" y="-684" font-family="Times,serif" font-size="10.00" fill="#000000">data_type: STRING</text>
<polygon fill="none" stroke="#000000" points="1,-654 1,-676 114,-676 114,-654 1,-654"/>
<text text-anchor="start" x="6" y="-662" font-family="Times,serif" font-size="10.00" fill="#000000">updated_by: STRING</text>
<polygon fill="none" stroke="#000000" points="1,-632 1,-654 114,-654 114,-632 1,-632"/>
<text text-anchor="start" x="5.9835" y="-640" font-family="Times,serif" font-size="10.00" fill="#000000">related_entity: NUMBER</text>
<polygon fill="none" stroke="#000000" points="1,-610 1,-632 114,-632 114,-610 1,-610"/>
<text text-anchor="start" x="6" y="-618" font-family="Times,serif" font-size="10.00" fill="#000000">createdAt: DATE</text>
<polygon fill="none" stroke="#000000" points="1,-588 1,-610 114,-610 114,-588 1,-588"/>
<text text-anchor="start" x="6" y="-596" font-family="Times,serif" font-size="10.00" fill="#000000">updatedAt: DATE</text>
</g>
<!-- Group -->
<g id="node2" class="node">
<title>Group</title>
<polygon fill="#add8e6" stroke="transparent" points="147,-572 147,-594 332,-594 332,-572 147,-572"/>
<polygon fill="none" stroke="#000000" points="147,-572 147,-594 332,-594 332,-572 147,-572"/>
<text text-anchor="start" x="226.726" y="-580" font-family="Times,serif" font-size="10.00" fill="#000000">Group</text>
<polygon fill="none" stroke="#000000" points="147,-550 147,-572 332,-572 332,-550 147,-550"/>
<text text-anchor="start" x="152" y="-558" font-family="Times,serif" font-size="10.00" fill="#000000">id: NUMBER</text>
<polygon fill="none" stroke="#000000" points="147,-528 147,-550 332,-550 332,-528 147,-528"/>
<text text-anchor="start" x="152" y="-536" font-family="Times,serif" font-size="10.00" fill="#000000">spark_id: NUMBER</text>
<polygon fill="none" stroke="#000000" points="147,-506 147,-528 332,-528 332,-506 147,-506"/>
<text text-anchor="start" x="152" y="-514" font-family="Times,serif" font-size="10.00" fill="#000000">group_name_en: STRING</text>
<polygon fill="none" stroke="#000000" points="147,-484 147,-506 332,-506 332,-484 147,-484"/>
<text text-anchor="start" x="152" y="-492" font-family="Times,serif" font-size="10.00" fill="#000000">group_name_he: STRING</text>
<polygon fill="none" stroke="#000000" points="147,-462 147,-484 332,-484 332,-462 147,-462"/>
<text text-anchor="start" x="152" y="-470" font-family="Times,serif" font-size="10.00" fill="#000000">group_desc_en: TEXT</text>
<polygon fill="none" stroke="#000000" points="147,-440 147,-462 332,-462 332,-440 147,-440"/>
<text text-anchor="start" x="152" y="-448" font-family="Times,serif" font-size="10.00" fill="#000000">group_desc_he: TEXT</text>
<polygon fill="none" stroke="#000000" points="147,-418 147,-440 332,-440 332,-418 147,-418"/>
<text text-anchor="start" x="152" y="-426" font-family="Times,serif" font-size="10.00" fill="#000000">group_character: TEXT</text>
<polygon fill="none" stroke="#000000" points="147,-396 147,-418 332,-418 332,-396 147,-396"/>
<text text-anchor="start" x="152" y="-404" font-family="Times,serif" font-size="10.00" fill="#000000">accept_families: BOOLEAN</text>
<polygon fill="none" stroke="#000000" points="147,-374 147,-396 332,-396 332,-374 147,-374"/>
<text text-anchor="start" x="152" y="-382" font-family="Times,serif" font-size="10.00" fill="#000000">child_friendly: BOOLEAN</text>
<polygon fill="none" stroke="#000000" points="147,-352 147,-374 332,-374 332,-352 147,-352"/>
<text text-anchor="start" x="152" y="-360" font-family="Times,serif" font-size="10.00" fill="#000000">web_published: BOOLEAN</text>
<polygon fill="none" stroke="#000000" points="147,-330 147,-352 332,-352 332,-330 147,-330"/>
<text text-anchor="start" x="152" y="-338" font-family="Times,serif" font-size="10.00" fill="#000000">facebook_url: STRING</text>
<polygon fill="none" stroke="#000000" points="147,-308 147,-330 332,-330 332,-308 147,-308"/>
<text text-anchor="start" x="151.605" y="-316" font-family="Times,serif" font-size="10.00" fill="#000000">group_is_new_members_open: BOOLEAN</text>
<polygon fill="none" stroke="#000000" points="147,-286 147,-308 332,-308 332,-286 147,-286"/>
<text text-anchor="start" x="152" y="-294" font-family="Times,serif" font-size="10.00" fill="#000000">group_type: ENUM</text>
<polygon fill="none" stroke="#000000" points="147,-264 147,-286 332,-286 332,-264 147,-264"/>
<text text-anchor="start" x="152" y="-272" font-family="Times,serif" font-size="10.00" fill="#000000">main_contact: NUMBER</text>
<polygon fill="none" stroke="#000000" points="147,-242 147,-264 332,-264 332,-242 147,-242"/>
<text text-anchor="start" x="152" y="-250" font-family="Times,serif" font-size="10.00" fill="#000000">sound_contact: NUMBER</text>
<polygon fill="none" stroke="#000000" points="147,-220 147,-242 332,-242 332,-220 147,-220"/>
<text text-anchor="start" x="152" y="-228" font-family="Times,serif" font-size="10.00" fill="#000000">moop_contact: NUMBER</text>
<polygon fill="none" stroke="#000000" points="147,-198 147,-220 332,-220 332,-198 147,-198"/>
<text text-anchor="start" x="152" y="-206" font-family="Times,serif" font-size="10.00" fill="#000000">safety_contact: NUMBER</text>
<polygon fill="none" stroke="#000000" points="147,-176 147,-198 332,-198 332,-176 147,-176"/>
<text text-anchor="start" x="152" y="-184" font-family="Times,serif" font-size="10.00" fill="#000000">contact_person_id: NUMBER</text>
<polygon fill="none" stroke="#000000" points="147,-154 147,-176 332,-176 332,-154 147,-154"/>
<text text-anchor="start" x="152" y="-162" font-family="Times,serif" font-size="10.00" fill="#000000">event_id: STRING</text>
<polygon fill="none" stroke="#000000" points="147,-132 147,-154 332,-154 332,-132 147,-132"/>
<text text-anchor="start" x="152" y="-140" font-family="Times,serif" font-size="10.00" fill="#000000">dream_id: STRING</text>
<polygon fill="none" stroke="#000000" points="147,-110 147,-132 332,-132 332,-110 147,-110"/>
<text text-anchor="start" x="152" y="-118" font-family="Times,serif" font-size="10.00" fill="#000000">camp_type: STRING</text>
<polygon fill="none" stroke="#000000" points="147,-88 147,-110 332,-110 332,-88 147,-88"/>
<text text-anchor="start" x="152" y="-96" font-family="Times,serif" font-size="10.00" fill="#000000">record_status: ENUM</text>
<polygon fill="none" stroke="#000000" points="147,-66 147,-88 332,-88 332,-66 147,-66"/>
<text text-anchor="start" x="152" y="-74" font-family="Times,serif" font-size="10.00" fill="#000000">group_status: ENUM</text>
<polygon fill="none" stroke="#000000" points="147,-44 147,-66 332,-66 332,-44 147,-44"/>
<text text-anchor="start" x="152" y="-52" font-family="Times,serif" font-size="10.00" fill="#000000">noise_level: ENUM</text>
<polygon fill="none" stroke="#000000" points="147,-22 147,-44 332,-44 332,-22 147,-22"/>
<text text-anchor="start" x="152" y="-30" font-family="Times,serif" font-size="10.00" fill="#000000">createdAt: DATE</text>
<polygon fill="none" stroke="#000000" points="147,0 147,-22 332,-22 332,0 147,0"/>
<text text-anchor="start" x="152" y="-8" font-family="Times,serif" font-size="10.00" fill="#000000">updatedAt: DATE</text>
</g>
<!-- GroupMember -->
<g id="node3" class="node">
<title>GroupMember</title>
<polygon fill="#add8e6" stroke="transparent" points="0,-261 0,-283 98,-283 98,-261 0,-261"/>
<polygon fill="none" stroke="#000000" points="0,-261 0,-283 98,-283 98,-261 0,-261"/>
<text text-anchor="start" x="19.2885" y="-269" font-family="Times,serif" font-size="10.00" fill="#000000">GroupMember</text>
<polygon fill="none" stroke="#000000" points="0,-239 0,-261 98,-261 98,-239 0,-239"/>
<text text-anchor="start" x="5" y="-247" font-family="Times,serif" font-size="10.00" fill="#000000">id: NUMBER</text>
<polygon fill="none" stroke="#000000" points="0,-217 0,-239 98,-239 98,-217 0,-217"/>
<text text-anchor="start" x="4.987" y="-225" font-family="Times,serif" font-size="10.00" fill="#000000">record_status: ENUM</text>
<polygon fill="none" stroke="#000000" points="0,-195 0,-217 98,-217 98,-195 0,-195"/>
<text text-anchor="start" x="5" y="-203" font-family="Times,serif" font-size="10.00" fill="#000000">user_id: NUMBER</text>
<polygon fill="none" stroke="#000000" points="0,-173 0,-195 98,-195 98,-173 0,-173"/>
<text text-anchor="start" x="5" y="-181" font-family="Times,serif" font-size="10.00" fill="#000000">email: STRING</text>
<polygon fill="none" stroke="#000000" points="0,-151 0,-173 98,-173 98,-151 0,-151"/>
<text text-anchor="start" x="5" y="-159" font-family="Times,serif" font-size="10.00" fill="#000000">cell_phone: STRING</text>
<polygon fill="none" stroke="#000000" points="0,-129 0,-151 98,-151 98,-129 0,-129"/>
<text text-anchor="start" x="5" y="-137" font-family="Times,serif" font-size="10.00" fill="#000000">name: STRING</text>
<polygon fill="none" stroke="#000000" points="0,-107 0,-129 98,-129 98,-107 0,-107"/>
<text text-anchor="start" x="5" y="-115" font-family="Times,serif" font-size="10.00" fill="#000000">group_id: NUMBER</text>
<polygon fill="none" stroke="#000000" points="0,-85 0,-107 98,-107 98,-85 0,-85"/>
<text text-anchor="start" x="5" y="-93" font-family="Times,serif" font-size="10.00" fill="#000000">createdAt: DATE</text>
<polygon fill="none" stroke="#000000" points="0,-63 0,-85 98,-85 98,-63 0,-63"/>
<text text-anchor="start" x="5" y="-71" font-family="Times,serif" font-size="10.00" fill="#000000">updatedAt: DATE</text>
</g>
<!-- Allocations -->
<g id="node4" class="node">
<title>Allocations</title>
<polygon fill="#add8e6" stroke="transparent" points="378,-409 378,-431 496,-431 496,-409 378,-409"/>
<polygon fill="none" stroke="#000000" points="378,-409 378,-431 496,-431 496,-409 378,-409"/>
<text text-anchor="start" x="413.949" y="-417" font-family="Times,serif" font-size="10.00" fill="#000000">Allocations</text>
<polygon fill="none" stroke="#000000" points="378,-387 378,-409 496,-409 496,-387 378,-387"/>
<text text-anchor="start" x="383" y="-395" font-family="Times,serif" font-size="10.00" fill="#000000">id: NUMBER</text>
<polygon fill="none" stroke="#000000" points="378,-365 378,-387 496,-387 496,-365 378,-365"/>
<text text-anchor="start" x="383" y="-373" font-family="Times,serif" font-size="10.00" fill="#000000">record_status: ENUM</text>
<polygon fill="none" stroke="#000000" points="378,-343 378,-365 496,-365 496,-343 378,-343"/>
<text text-anchor="start" x="383" y="-351" font-family="Times,serif" font-size="10.00" fill="#000000">allocation_type: ENUM</text>
<polygon fill="none" stroke="#000000" points="378,-321 378,-343 496,-343 496,-321 378,-321"/>
<text text-anchor="start" x="383" y="-329" font-family="Times,serif" font-size="10.00" fill="#000000">allocated_by: NUMBER</text>
<polygon fill="none" stroke="#000000" points="378,-299 378,-321 496,-321 496,-299 378,-299"/>
<text text-anchor="start" x="383" y="-307" font-family="Times,serif" font-size="10.00" fill="#000000">allocated_to: NUMBER</text>
<polygon fill="none" stroke="#000000" points="378,-277 378,-299 496,-299 496,-277 378,-277"/>
<text text-anchor="start" x="383" y="-285" font-family="Times,serif" font-size="10.00" fill="#000000">related_group: NUMBER</text>
<polygon fill="none" stroke="#000000" points="378,-255 378,-277 496,-277 496,-255 378,-255"/>
<text text-anchor="start" x="382.7135" y="-263" font-family="Times,serif" font-size="10.00" fill="#000000">active_for_event: STRING</text>
<polygon fill="none" stroke="#000000" points="378,-233 378,-255 496,-255 496,-233 378,-233"/>
<text text-anchor="start" x="383" y="-241" font-family="Times,serif" font-size="10.00" fill="#000000">allocation_group: ENUM</text>
<polygon fill="none" stroke="#000000" points="378,-211 378,-233 496,-233 496,-211 378,-211"/>
<text text-anchor="start" x="383" y="-219" font-family="Times,serif" font-size="10.00" fill="#000000">createdAt: DATE</text>
<polygon fill="none" stroke="#000000" points="378,-189 378,-211 496,-211 496,-189 378,-189"/>
<text text-anchor="start" x="383" y="-197" font-family="Times,serif" font-size="10.00" fill="#000000">updatedAt: DATE</text>
</g>
<!-- Permissions -->
<g id="node5" class="node">
<title>Permissions</title>
<polygon fill="#add8e6" stroke="transparent" points="400,-660 400,-682 517,-682 517,-660 400,-660"/>
<polygon fill="none" stroke="#000000" points="400,-660 400,-682 517,-682 517,-660 400,-660"/>
<text text-anchor="start" x="434.3345" y="-668" font-family="Times,serif" font-size="10.00" fill="#000000">Permissions</text>
<polygon fill="none" stroke="#000000" points="400,-638 400,-660 517,-660 517,-638 400,-638"/>
<text text-anchor="start" x="405" y="-646" font-family="Times,serif" font-size="10.00" fill="#000000">id: NUMBER</text>
<polygon fill="none" stroke="#000000" points="400,-616 400,-638 517,-638 517,-616 400,-616"/>
<text text-anchor="start" x="405" y="-624" font-family="Times,serif" font-size="10.00" fill="#000000">user_id: NUMBER</text>
<polygon fill="none" stroke="#000000" points="400,-594 400,-616 517,-616 517,-594 400,-594"/>
<text text-anchor="start" x="405" y="-602" font-family="Times,serif" font-size="10.00" fill="#000000">record_status: ENUM</text>
<polygon fill="none" stroke="#000000" points="400,-572 400,-594 517,-594 517,-572 400,-572"/>
<text text-anchor="start" x="404.758" y="-580" font-family="Times,serif" font-size="10.00" fill="#000000">permission_type: STRING</text>
<polygon fill="none" stroke="#000000" points="400,-550 400,-572 517,-572 517,-550 400,-550"/>
<text text-anchor="start" x="405" y="-558" font-family="Times,serif" font-size="10.00" fill="#000000">entity_type: STRING</text>
<polygon fill="none" stroke="#000000" points="400,-528 400,-550 517,-550 517,-528 400,-528"/>
<text text-anchor="start" x="405" y="-536" font-family="Times,serif" font-size="10.00" fill="#000000">related_entity: NUMBER</text>
<polygon fill="none" stroke="#000000" points="400,-506 400,-528 517,-528 517,-506 400,-506"/>
<text text-anchor="start" x="405" y="-514" font-family="Times,serif" font-size="10.00" fill="#000000">permitted_by: NUMBER</text>
<polygon fill="none" stroke="#000000" points="400,-484 400,-506 517,-506 517,-484 400,-484"/>
<text text-anchor="start" x="405" y="-492" font-family="Times,serif" font-size="10.00" fill="#000000">createdAt: DATE</text>
<polygon fill="none" stroke="#000000" points="400,-462 400,-484 517,-484 517,-462 400,-462"/>
<text text-anchor="start" x="405" y="-470" font-family="Times,serif" font-size="10.00" fill="#000000">updatedAt: DATE</text>
</g>
<!-- LoggedUsers -->
<g id="node6" class="node">
<title>LoggedUsers</title>
<polygon fill="#add8e6" stroke="transparent" points="546,-573 546,-595 644,-595 644,-573 546,-573"/>
<polygon fill="none" stroke="#000000" points="546,-573 546,-595 644,-595 644,-573 546,-573"/>
<text text-anchor="start" x="568.3435" y="-581" font-family="Times,serif" font-size="10.00" fill="#000000">LoggedUsers</text>
<polygon fill="none" stroke="#000000" points="546,-551 546,-573 644,-573 644,-551 546,-551"/>
<text text-anchor="start" x="551" y="-559" font-family="Times,serif" font-size="10.00" fill="#000000">user_id: NUMBER</text>
<polygon fill="none" stroke="#000000" points="546,-529 546,-551 644,-551 644,-529 546,-529"/>
<text text-anchor="start" x="551" y="-537" font-family="Times,serif" font-size="10.00" fill="#000000">logged: BOOLEAN</text>
<polygon fill="none" stroke="#000000" points="546,-507 546,-529 644,-529 644,-507 546,-507"/>
<text text-anchor="start" x="551" y="-515" font-family="Times,serif" font-size="10.00" fill="#000000">email: STRING</text>
<polygon fill="none" stroke="#000000" points="546,-485 546,-507 644,-507 644,-485 546,-485"/>
<text text-anchor="start" x="550.987" y="-493" font-family="Times,serif" font-size="10.00" fill="#000000">record_status: ENUM</text>
<polygon fill="none" stroke="#000000" points="546,-463 546,-485 644,-485 644,-463 546,-463"/>
<text text-anchor="start" x="551" y="-471" font-family="Times,serif" font-size="10.00" fill="#000000">createdAt: DATE</text>
<polygon fill="none" stroke="#000000" points="546,-441 546,-463 644,-463 644,-441 546,-441"/>
<text text-anchor="start" x="551" y="-449" font-family="Times,serif" font-size="10.00" fill="#000000">updatedAt: DATE</text>
</g>
<!-- Request -->
<g id="node7" class="node">
<title>Request</title>
<polygon fill="#add8e6" stroke="transparent" points="546,-175 546,-197 660,-197 660,-175 546,-175"/>
<polygon fill="none" stroke="#000000" points="546,-175 546,-197 660,-197 660,-175 546,-175"/>
<text text-anchor="start" x="586.8925" y="-183" font-family="Times,serif" font-size="10.00" fill="#000000">Request</text>
<polygon fill="none" stroke="#000000" points="546,-153 546,-175 660,-175 660,-153 546,-153"/>
<text text-anchor="start" x="551" y="-161" font-family="Times,serif" font-size="10.00" fill="#000000">id: NUMBER</text>
<polygon fill="none" stroke="#000000" points="546,-131 546,-153 660,-153 660,-131 546,-131"/>
<text text-anchor="start" x="550.652" y="-139" font-family="Times,serif" font-size="10.00" fill="#000000">created_by_id: NUMBER</text>
<polygon fill="none" stroke="#000000" points="546,-109 546,-131 660,-131 660,-109 546,-109"/>
<text text-anchor="start" x="551" y="-117" font-family="Times,serif" font-size="10.00" fill="#000000">related_id: NUMBER</text>
<polygon fill="none" stroke="#000000" points="546,-87 546,-109 660,-109 660,-87 546,-87"/>
<text text-anchor="start" x="551" y="-95" font-family="Times,serif" font-size="10.00" fill="#000000">related_type: ENUM</text>
<polygon fill="none" stroke="#000000" points="546,-65 546,-87 660,-87 660,-65 546,-65"/>
<text text-anchor="start" x="551" y="-73" font-family="Times,serif" font-size="10.00" fill="#000000">data: STRING</text>
<polygon fill="none" stroke="#000000" points="546,-43 546,-65 660,-65 660,-43 546,-43"/>
<text text-anchor="start" x="551" y="-51" font-family="Times,serif" font-size="10.00" fill="#000000">createdAt: DATE</text>
<polygon fill="none" stroke="#000000" points="546,-21 546,-43 660,-43 660,-21 546,-21"/>
<text text-anchor="start" x="551" y="-29" font-family="Times,serif" font-size="10.00" fill="#000000">updatedAt: DATE</text>
</g>
<!-- AdminAllocationRounds -->
<g id="node8" class="node">
<title>AdminAllocationRounds</title>
<polygon fill="#add8e6" stroke="transparent" points="0,-535 0,-557 110,-557 110,-535 0,-535"/>
<polygon fill="none" stroke="#000000" points="0,-535 0,-557 110,-557 110,-535 0,-535"/>
<text text-anchor="start" x="4.726" y="-543" font-family="Times,serif" font-size="10.00" fill="#000000">AdminAllocationRounds</text>
<polygon fill="none" stroke="#000000" points="0,-513 0,-535 110,-535 110,-513 0,-513"/>
<text text-anchor="start" x="5" y="-521" font-family="Times,serif" font-size="10.00" fill="#000000">id: NUMBER</text>
<polygon fill="none" stroke="#000000" points="0,-491 0,-513 110,-513 110,-491 0,-491"/>
<text text-anchor="start" x="5" y="-499" font-family="Times,serif" font-size="10.00" fill="#000000">group_id: NUMBER</text>
<polygon fill="none" stroke="#000000" points="0,-469 0,-491 110,-491 110,-469 0,-469"/>
<text text-anchor="start" x="5" y="-477" font-family="Times,serif" font-size="10.00" fill="#000000">group_type: ENUM</text>
<polygon fill="none" stroke="#000000" points="0,-447 0,-469 110,-469 110,-447 0,-447"/>
<text text-anchor="start" x="5" y="-455" font-family="Times,serif" font-size="10.00" fill="#000000">count: STRING</text>
<polygon fill="none" stroke="#000000" points="0,-425 0,-447 110,-447 110,-425 0,-425"/>
<text text-anchor="start" x="5" y="-433" font-family="Times,serif" font-size="10.00" fill="#000000">publication_date: DATE</text>
<polygon fill="none" stroke="#000000" points="0,-403 0,-425 110,-425 110,-403 0,-403"/>
<text text-anchor="start" x="5" y="-411" font-family="Times,serif" font-size="10.00" fill="#000000">event_id: STRING</text>
<polygon fill="none" stroke="#000000" points="0,-381 0,-403 110,-403 110,-381 0,-381"/>
<text text-anchor="start" x="5" y="-389" font-family="Times,serif" font-size="10.00" fill="#000000">record_status: ENUM</text>
<polygon fill="none" stroke="#000000" points="0,-359 0,-381 110,-381 110,-359 0,-359"/>
<text text-anchor="start" x="5" y="-367" font-family="Times,serif" font-size="10.00" fill="#000000">allocation_type: ENUM</text>
<polygon fill="none" stroke="#000000" points="0,-337 0,-359 110,-359 110,-337 0,-337"/>
<text text-anchor="start" x="5" y="-345" font-family="Times,serif" font-size="10.00" fill="#000000">createdAt: DATE</text>
<polygon fill="none" stroke="#000000" points="0,-315 0,-337 110,-337 110,-315 0,-315"/>
<text text-anchor="start" x="5" y="-323" font-family="Times,serif" font-size="10.00" fill="#000000">updatedAt: DATE</text>
</g>
<!-- MemberRoles -->
<g id="node9" class="node">
<title>MemberRoles</title>
<polygon fill="#add8e6" stroke="transparent" points="546,-385 546,-407 644,-407 644,-385 546,-385"/>
<polygon fill="none" stroke="#000000" points="546,-385 546,-407 644,-407 644,-385 546,-385"/>
<text text-anchor="start" x="566.6745" y="-393" font-family="Times,serif" font-size="10.00" fill="#000000">MemberRoles</text>
<polygon fill="none" stroke="#000000" points="546,-363 546,-385 644,-385 644,-363 546,-363"/>
<text text-anchor="start" x="551" y="-371" font-family="Times,serif" font-size="10.00" fill="#000000">id: NUMBER</text>
<polygon fill="none" stroke="#000000" points="546,-341 546,-363 644,-363 644,-341 546,-341"/>
<text text-anchor="start" x="551" y="-349" font-family="Times,serif" font-size="10.00" fill="#000000">user_id: NUMBER</text>
<polygon fill="none" stroke="#000000" points="546,-319 546,-341 644,-341 644,-319 546,-319"/>
<text text-anchor="start" x="551" y="-327" font-family="Times,serif" font-size="10.00" fill="#000000">group_id: NUMBER</text>
<polygon fill="none" stroke="#000000" points="546,-297 546,-319 644,-319 644,-297 546,-297"/>
<text text-anchor="start" x="550.987" y="-305" font-family="Times,serif" font-size="10.00" fill="#000000">record_status: ENUM</text>
<polygon fill="none" stroke="#000000" points="546,-275 546,-297 644,-297 644,-275 546,-275"/>
<text text-anchor="start" x="551" y="-283" font-family="Times,serif" font-size="10.00" fill="#000000">role: STRING</text>
<polygon fill="none" stroke="#000000" points="546,-253 546,-275 644,-275 644,-253 546,-253"/>
<text text-anchor="start" x="551" y="-261" font-family="Times,serif" font-size="10.00" fill="#000000">createdAt: DATE</text>
<polygon fill="none" stroke="#000000" points="546,-231 546,-253 644,-253 644,-231 546,-231"/>
<text text-anchor="start" x="551" y="-239" font-family="Times,serif" font-size="10.00" fill="#000000">updatedAt: DATE</text>
</g>
</g>
</svg>
