<?xml version="1.0" encoding="UTF-8" standalone="no"?>
<!DOCTYPE svg PUBLIC "-//W3C//DTD SVG 1.1//EN"
 "http://www.w3.org/Graphics/SVG/1.1/DTD/svg11.dtd">
<!-- Generated by graphviz version 2.40.1 (20161225.0304)
 -->
<!-- Title: models_diagram Pages: 1 -->
<svg width="750pt" height="828pt"
 viewBox="0.00 0.00 750.00 828.00" xmlns="http://www.w3.org/2000/svg" xmlns:xlink="http://www.w3.org/1999/xlink">
<g id="graph0" class="graph" transform="scale(1 1) rotate(0) translate(36 792)">
<title>models_diagram</title>
<polygon fill="#ffffff" stroke="transparent" points="-36,36 -36,-792 714,-792 714,36 -36,36"/>
<!-- Audits -->
<g id="node1" class="node">
<title>Audits</title>
<polygon fill="#add8e6" stroke="transparent" points="1,-734 1,-756 114,-756 114,-734 1,-734"/>
<polygon fill="none" stroke="#000000" points="1,-734 1,-756 114,-756 114,-734 1,-734"/>
<text text-anchor="start" x="44.167" y="-742" font-family="Times,serif" font-size="10.00" fill="#000000">Audits</text>
<polygon fill="none" stroke="#000000" points="1,-712 1,-734 114,-734 114,-712 1,-712"/>
<text text-anchor="start" x="6" y="-720" font-family="Times,serif" font-size="10.00" fill="#000000">id: NUMBER</text>
<polygon fill="none" stroke="#000000" points="1,-690 1,-712 114,-712 114,-690 1,-690"/>
<text text-anchor="start" x="6" y="-698" font-family="Times,serif" font-size="10.00" fill="#000000">record_status: ENUM</text>
<polygon fill="none" stroke="#000000" points="1,-668 1,-690 114,-690 114,-668 1,-668"/>
<text text-anchor="start" x="6" y="-676" font-family="Times,serif" font-size="10.00" fill="#000000">data_type: STRING</text>
<polygon fill="none" stroke="#000000" points="1,-646 1,-668 114,-668 114,-646 1,-646"/>
<text text-anchor="start" x="6" y="-654" font-family="Times,serif" font-size="10.00" fill="#000000">updated_by: STRING</text>
<polygon fill="none" stroke="#000000" points="1,-624 1,-646 114,-646 114,-624 1,-624"/>
<text text-anchor="start" x="5.9835" y="-632" font-family="Times,serif" font-size="10.00" fill="#000000">related_entity: NUMBER</text>
<polygon fill="none" stroke="#000000" points="1,-602 1,-624 114,-624 114,-602 1,-602"/>
<text text-anchor="start" x="6" y="-610" font-family="Times,serif" font-size="10.00" fill="#000000">createdAt: DATE</text>
<polygon fill="none" stroke="#000000" points="1,-580 1,-602 114,-602 114,-580 1,-580"/>
<text text-anchor="start" x="6" y="-588" font-family="Times,serif" font-size="10.00" fill="#000000">updatedAt: DATE</text>
</g>
<!-- Group -->
<g id="node2" class="node">
<title>Group</title>
<polygon fill="#add8e6" stroke="transparent" points="160,-592 160,-614 310,-614 310,-592 160,-592"/>
<polygon fill="none" stroke="#000000" points="160,-592 160,-614 310,-614 310,-592 160,-592"/>
<text text-anchor="start" x="222.226" y="-600" font-family="Times,serif" font-size="10.00" fill="#000000">Group</text>
<polygon fill="none" stroke="#000000" points="160,-570 160,-592 310,-592 310,-570 160,-570"/>
<text text-anchor="start" x="165" y="-578" font-family="Times,serif" font-size="10.00" fill="#000000">id: NUMBER</text>
<polygon fill="none" stroke="#000000" points="160,-548 160,-570 310,-570 310,-548 160,-548"/>
<text text-anchor="start" x="165" y="-556" font-family="Times,serif" font-size="10.00" fill="#000000">spark_id: NUMBER</text>
<polygon fill="none" stroke="#000000" points="160,-526 160,-548 310,-548 310,-526 160,-526"/>
<text text-anchor="start" x="165" y="-534" font-family="Times,serif" font-size="10.00" fill="#000000">group_name_en: STRING</text>
<polygon fill="none" stroke="#000000" points="160,-504 160,-526 310,-526 310,-504 160,-504"/>
<text text-anchor="start" x="165" y="-512" font-family="Times,serif" font-size="10.00" fill="#000000">group_name_he: STRING</text>
<polygon fill="none" stroke="#000000" points="160,-482 160,-504 310,-504 310,-482 160,-482"/>
<text text-anchor="start" x="165" y="-490" font-family="Times,serif" font-size="10.00" fill="#000000">group_desc_en: TEXT</text>
<polygon fill="none" stroke="#000000" points="160,-460 160,-482 310,-482 310,-460 160,-460"/>
<text text-anchor="start" x="165" y="-468" font-family="Times,serif" font-size="10.00" fill="#000000">group_desc_he: TEXT</text>
<polygon fill="none" stroke="#000000" points="160,-438 160,-460 310,-460 310,-438 160,-438"/>
<text text-anchor="start" x="165" y="-446" font-family="Times,serif" font-size="10.00" fill="#000000">group_character: TEXT</text>
<polygon fill="none" stroke="#000000" points="160,-416 160,-438 310,-438 310,-416 160,-416"/>
<text text-anchor="start" x="165" y="-424" font-family="Times,serif" font-size="10.00" fill="#000000">accept_families: BOOLEAN</text>
<polygon fill="none" stroke="#000000" points="160,-394 160,-416 310,-416 310,-394 160,-394"/>
<text text-anchor="start" x="165" y="-402" font-family="Times,serif" font-size="10.00" fill="#000000">child_friendly: BOOLEAN</text>
<polygon fill="none" stroke="#000000" points="160,-372 160,-394 310,-394 310,-372 160,-372"/>
<text text-anchor="start" x="165" y="-380" font-family="Times,serif" font-size="10.00" fill="#000000">web_published: BOOLEAN</text>
<polygon fill="none" stroke="#000000" points="160,-350 160,-372 310,-372 310,-350 160,-350"/>
<text text-anchor="start" x="165" y="-358" font-family="Times,serif" font-size="10.00" fill="#000000">facebook_url: STRING</text>
<polygon fill="none" stroke="#000000" points="160,-328 160,-350 310,-350 310,-328 160,-328"/>
<text text-anchor="start" x="165" y="-336" font-family="Times,serif" font-size="10.00" fill="#000000">group_type: ENUM</text>
<polygon fill="none" stroke="#000000" points="160,-306 160,-328 310,-328 310,-306 160,-306"/>
<text text-anchor="start" x="165" y="-314" font-family="Times,serif" font-size="10.00" fill="#000000">main_contact: NUMBER</text>
<polygon fill="none" stroke="#000000" points="160,-284 160,-306 310,-306 310,-284 160,-284"/>
<text text-anchor="start" x="165" y="-292" font-family="Times,serif" font-size="10.00" fill="#000000">sound_contact: NUMBER</text>
<polygon fill="none" stroke="#000000" points="160,-262 160,-284 310,-284 310,-262 160,-262"/>
<text text-anchor="start" x="165" y="-270" font-family="Times,serif" font-size="10.00" fill="#000000">moop_contact: NUMBER</text>
<polygon fill="none" stroke="#000000" points="160,-240 160,-262 310,-262 310,-240 160,-240"/>
<text text-anchor="start" x="165" y="-248" font-family="Times,serif" font-size="10.00" fill="#000000">safety_contact: NUMBER</text>
<polygon fill="none" stroke="#000000" points="160,-218 160,-240 310,-240 310,-218 160,-218"/>
<text text-anchor="start" x="165" y="-226" font-family="Times,serif" font-size="10.00" fill="#000000">contact_person_id: NUMBER</text>
<polygon fill="none" stroke="#000000" points="160,-196 160,-218 310,-218 310,-196 160,-196"/>
<text text-anchor="start" x="165" y="-204" font-family="Times,serif" font-size="10.00" fill="#000000">event_id: STRING</text>
<polygon fill="none" stroke="#000000" points="160,-174 160,-196 310,-196 310,-174 160,-174"/>
<text text-anchor="start" x="165" y="-182" font-family="Times,serif" font-size="10.00" fill="#000000">dream_id: STRING</text>
<polygon fill="none" stroke="#000000" points="160,-152 160,-174 310,-174 310,-152 160,-152"/>
<text text-anchor="start" x="165" y="-160" font-family="Times,serif" font-size="10.00" fill="#000000">camp_type: STRING</text>
<polygon fill="none" stroke="#000000" points="160,-130 160,-152 310,-152 310,-130 160,-130"/>
<text text-anchor="start" x="165" y="-138" font-family="Times,serif" font-size="10.00" fill="#000000">record_status: ENUM</text>
<polygon fill="none" stroke="#000000" points="160,-108 160,-130 310,-130 310,-108 160,-108"/>
<text text-anchor="start" x="164.874" y="-116" font-family="Times,serif" font-size="10.00" fill="#000000">group_membership_status: ENUM</text>
<polygon fill="none" stroke="#000000" points="160,-86 160,-108 310,-108 310,-86 160,-86"/>
<text text-anchor="start" x="165" y="-94" font-family="Times,serif" font-size="10.00" fill="#000000">group_status: ENUM</text>
<polygon fill="none" stroke="#000000" points="160,-64 160,-86 310,-86 310,-64 160,-64"/>
<text text-anchor="start" x="165" y="-72" font-family="Times,serif" font-size="10.00" fill="#000000">noise_level: ENUM</text>
<polygon fill="none" stroke="#000000" points="160,-42 160,-64 310,-64 310,-42 160,-42"/>
<text text-anchor="start" x="165" y="-50" font-family="Times,serif" font-size="10.00" fill="#000000">createdAt: DATE</text>
<polygon fill="none" stroke="#000000" points="160,-20 160,-42 310,-42 310,-20 160,-20"/>
<text text-anchor="start" x="165" y="-28" font-family="Times,serif" font-size="10.00" fill="#000000">updatedAt: DATE</text>
</g>
<!-- GroupMember -->
<g id="node3" class="node">
<title>GroupMember</title>
<polygon fill="#add8e6" stroke="transparent" points="480,-278 480,-300 578,-300 578,-278 480,-278"/>
<polygon fill="none" stroke="#000000" points="480,-278 480,-300 578,-300 578,-278 480,-278"/>
<text text-anchor="start" x="499.2885" y="-286" font-family="Times,serif" font-size="10.00" fill="#000000">GroupMember</text>
<polygon fill="none" stroke="#000000" points="480,-256 480,-278 578,-278 578,-256 480,-256"/>
<text text-anchor="start" x="485" y="-264" font-family="Times,serif" font-size="10.00" fill="#000000">id: NUMBER</text>
<polygon fill="none" stroke="#000000" points="480,-234 480,-256 578,-256 578,-234 480,-234"/>
<text text-anchor="start" x="484.987" y="-242" font-family="Times,serif" font-size="10.00" fill="#000000">record_status: ENUM</text>
<polygon fill="none" stroke="#000000" points="480,-212 480,-234 578,-234 578,-212 480,-212"/>
<text text-anchor="start" x="485" y="-220" font-family="Times,serif" font-size="10.00" fill="#000000">user_id: NUMBER</text>
<polygon fill="none" stroke="#000000" points="480,-190 480,-212 578,-212 578,-190 480,-190"/>
<text text-anchor="start" x="485" y="-198" font-family="Times,serif" font-size="10.00" fill="#000000">email: STRING</text>
<polygon fill="none" stroke="#000000" points="480,-168 480,-190 578,-190 578,-168 480,-168"/>
<text text-anchor="start" x="485" y="-176" font-family="Times,serif" font-size="10.00" fill="#000000">cell_phone: STRING</text>
<polygon fill="none" stroke="#000000" points="480,-146 480,-168 578,-168 578,-146 480,-146"/>
<text text-anchor="start" x="485" y="-154" font-family="Times,serif" font-size="10.00" fill="#000000">name: STRING</text>
<polygon fill="none" stroke="#000000" points="480,-124 480,-146 578,-146 578,-124 480,-124"/>
<text text-anchor="start" x="485" y="-132" font-family="Times,serif" font-size="10.00" fill="#000000">group_id: NUMBER</text>
<polygon fill="none" stroke="#000000" points="480,-102 480,-124 578,-124 578,-102 480,-102"/>
<text text-anchor="start" x="485" y="-110" font-family="Times,serif" font-size="10.00" fill="#000000">createdAt: DATE</text>
<polygon fill="none" stroke="#000000" points="480,-80 480,-102 578,-102 578,-80 480,-80"/>
<text text-anchor="start" x="485" y="-88" font-family="Times,serif" font-size="10.00" fill="#000000">updatedAt: DATE</text>
</g>
<!-- Allocations -->
<g id="node4" class="node">
<title>Allocations</title>
<polygon fill="#add8e6" stroke="transparent" points="420,-720 420,-742 538,-742 538,-720 420,-720"/>
<polygon fill="none" stroke="#000000" points="420,-720 420,-742 538,-742 538,-720 420,-720"/>
<text text-anchor="start" x="455.949" y="-728" font-family="Times,serif" font-size="10.00" fill="#000000">Allocations</text>
<polygon fill="none" stroke="#000000" points="420,-698 420,-720 538,-720 538,-698 420,-698"/>
<text text-anchor="start" x="425" y="-706" font-family="Times,serif" font-size="10.00" fill="#000000">id: NUMBER</text>
<polygon fill="none" stroke="#000000" points="420,-676 420,-698 538,-698 538,-676 420,-676"/>
<text text-anchor="start" x="425" y="-684" font-family="Times,serif" font-size="10.00" fill="#000000">record_status: ENUM</text>
<polygon fill="none" stroke="#000000" points="420,-654 420,-676 538,-676 538,-654 420,-654"/>
<text text-anchor="start" x="425" y="-662" font-family="Times,serif" font-size="10.00" fill="#000000">allocation_type: ENUM</text>
<polygon fill="none" stroke="#000000" points="420,-632 420,-654 538,-654 538,-632 420,-632"/>
<text text-anchor="start" x="425" y="-640" font-family="Times,serif" font-size="10.00" fill="#000000">allocated_by: NUMBER</text>
<polygon fill="none" stroke="#000000" points="420,-610 420,-632 538,-632 538,-610 420,-610"/>
<text text-anchor="start" x="425" y="-618" font-family="Times,serif" font-size="10.00" fill="#000000">allocated_to: NUMBER</text>
<polygon fill="none" stroke="#000000" points="420,-588 420,-610 538,-610 538,-588 420,-588"/>
<text text-anchor="start" x="425" y="-596" font-family="Times,serif" font-size="10.00" fill="#000000">related_group: NUMBER</text>
<polygon fill="none" stroke="#000000" points="420,-566 420,-588 538,-588 538,-566 420,-566"/>
<text text-anchor="start" x="424.7135" y="-574" font-family="Times,serif" font-size="10.00" fill="#000000">active_for_event: STRING</text>
<polygon fill="none" stroke="#000000" points="420,-544 420,-566 538,-566 538,-544 420,-544"/>
<text text-anchor="start" x="425" y="-552" font-family="Times,serif" font-size="10.00" fill="#000000">allocation_group: ENUM</text>
<polygon fill="none" stroke="#000000" points="420,-522 420,-544 538,-544 538,-522 420,-522"/>
<text text-anchor="start" x="425" y="-530" font-family="Times,serif" font-size="10.00" fill="#000000">createdAt: DATE</text>
<polygon fill="none" stroke="#000000" points="420,-500 420,-522 538,-522 538,-500 420,-500"/>
<text text-anchor="start" x="425" y="-508" font-family="Times,serif" font-size="10.00" fill="#000000">updatedAt: DATE</text>
</g>
<!-- Permissions -->
<g id="node5" class="node">
<title>Permissions</title>
<polygon fill="#add8e6" stroke="transparent" points="1,-518 1,-540 118,-540 118,-518 1,-518"/>
<polygon fill="none" stroke="#000000" points="1,-518 1,-540 118,-540 118,-518 1,-518"/>
<text text-anchor="start" x="35.3345" y="-526" font-family="Times,serif" font-size="10.00" fill="#000000">Permissions</text>
<polygon fill="none" stroke="#000000" points="1,-496 1,-518 118,-518 118,-496 1,-496"/>
<text text-anchor="start" x="6" y="-504" font-family="Times,serif" font-size="10.00" fill="#000000">id: NUMBER</text>
<polygon fill="none" stroke="#000000" points="1,-474 1,-496 118,-496 118,-474 1,-474"/>
<text text-anchor="start" x="6" y="-482" font-family="Times,serif" font-size="10.00" fill="#000000">user_id: NUMBER</text>
<polygon fill="none" stroke="#000000" points="1,-452 1,-474 118,-474 118,-452 1,-452"/>
<text text-anchor="start" x="6" y="-460" font-family="Times,serif" font-size="10.00" fill="#000000">record_status: ENUM</text>
<polygon fill="none" stroke="#000000" points="1,-430 1,-452 118,-452 118,-430 1,-430"/>
<text text-anchor="start" x="5.758" y="-438" font-family="Times,serif" font-size="10.00" fill="#000000">permission_type: STRING</text>
<polygon fill="none" stroke="#000000" points="1,-408 1,-430 118,-430 118,-408 1,-408"/>
<text text-anchor="start" x="6" y="-416" font-family="Times,serif" font-size="10.00" fill="#000000">entity_type: STRING</text>
<polygon fill="none" stroke="#000000" points="1,-386 1,-408 118,-408 118,-386 1,-386"/>
<text text-anchor="start" x="6" y="-394" font-family="Times,serif" font-size="10.00" fill="#000000">related_entity: NUMBER</text>
<polygon fill="none" stroke="#000000" points="1,-364 1,-386 118,-386 118,-364 1,-364"/>
<text text-anchor="start" x="6" y="-372" font-family="Times,serif" font-size="10.00" fill="#000000">permitted_by: NUMBER</text>
<polygon fill="none" stroke="#000000" points="1,-342 1,-364 118,-364 118,-342 1,-342"/>
<text text-anchor="start" x="6" y="-350" font-family="Times,serif" font-size="10.00" fill="#000000">createdAt: DATE</text>
<polygon fill="none" stroke="#000000" points="1,-320 1,-342 118,-342 118,-320 1,-320"/>
<text text-anchor="start" x="6" y="-328" font-family="Times,serif" font-size="10.00" fill="#000000">updatedAt: DATE</text>
</g>
<!-- LoggedUsers -->
<g id="node6" class="node">
<title>LoggedUsers</title>
<polygon fill="#add8e6" stroke="transparent" points="580,-472 580,-494 678,-494 678,-472 580,-472"/>
<polygon fill="none" stroke="#000000" points="580,-472 580,-494 678,-494 678,-472 580,-472"/>
<text text-anchor="start" x="602.3435" y="-480" font-family="Times,serif" font-size="10.00" fill="#000000">LoggedUsers</text>
<polygon fill="none" stroke="#000000" points="580,-450 580,-472 678,-472 678,-450 580,-450"/>
<text text-anchor="start" x="585" y="-458" font-family="Times,serif" font-size="10.00" fill="#000000">user_id: NUMBER</text>
<polygon fill="none" stroke="#000000" points="580,-428 580,-450 678,-450 678,-428 580,-428"/>
<text text-anchor="start" x="585" y="-436" font-family="Times,serif" font-size="10.00" fill="#000000">logged: BOOLEAN</text>
<polygon fill="none" stroke="#000000" points="580,-406 580,-428 678,-428 678,-406 580,-406"/>
<text text-anchor="start" x="585" y="-414" font-family="Times,serif" font-size="10.00" fill="#000000">email: STRING</text>
<polygon fill="none" stroke="#000000" points="580,-384 580,-406 678,-406 678,-384 580,-384"/>
<text text-anchor="start" x="584.987" y="-392" font-family="Times,serif" font-size="10.00" fill="#000000">record_status: ENUM</text>
<polygon fill="none" stroke="#000000" points="580,-362 580,-384 678,-384 678,-362 580,-362"/>
<text text-anchor="start" x="585" y="-370" font-family="Times,serif" font-size="10.00" fill="#000000">createdAt: DATE</text>
<polygon fill="none" stroke="#000000" points="580,-340 580,-362 678,-362 678,-340 580,-340"/>
<text text-anchor="start" x="585" y="-348" font-family="Times,serif" font-size="10.00" fill="#000000">updatedAt: DATE</text>
</g>
<!-- Request -->
<g id="node7" class="node">
<title>Request</title>
<polygon fill="#add8e6" stroke="transparent" points="0,-256 0,-278 114,-278 114,-256 0,-256"/>
<polygon fill="none" stroke="#000000" points="0,-256 0,-278 114,-278 114,-256 0,-256"/>
<text text-anchor="start" x="40.8925" y="-264" font-family="Times,serif" font-size="10.00" fill="#000000">Request</text>
<polygon fill="none" stroke="#000000" points="0,-234 0,-256 114,-256 114,-234 0,-234"/>
<text text-anchor="start" x="5" y="-242" font-family="Times,serif" font-size="10.00" fill="#000000">id: NUMBER</text>
<polygon fill="none" stroke="#000000" points="0,-212 0,-234 114,-234 114,-212 0,-212"/>
<text text-anchor="start" x="4.652" y="-220" font-family="Times,serif" font-size="10.00" fill="#000000">created_by_id: NUMBER</text>
<polygon fill="none" stroke="#000000" points="0,-190 0,-212 114,-212 114,-190 0,-190"/>
<text text-anchor="start" x="5" y="-198" font-family="Times,serif" font-size="10.00" fill="#000000">related_id: NUMBER</text>
<polygon fill="none" stroke="#000000" points="0,-168 0,-190 114,-190 114,-168 0,-168"/>
<text text-anchor="start" x="5" y="-176" font-family="Times,serif" font-size="10.00" fill="#000000">related_type: ENUM</text>
<polygon fill="none" stroke="#000000" points="0,-146 0,-168 114,-168 114,-146 0,-146"/>
<text text-anchor="start" x="5" y="-154" font-family="Times,serif" font-size="10.00" fill="#000000">record_status: ENUM</text>
<polygon fill="none" stroke="#000000" points="0,-124 0,-146 114,-146 114,-124 0,-124"/>
<text text-anchor="start" x="5" y="-132" font-family="Times,serif" font-size="10.00" fill="#000000">data: STRING</text>
<polygon fill="none" stroke="#000000" points="0,-102 0,-124 114,-124 114,-102 0,-102"/>
<text text-anchor="start" x="5" y="-110" font-family="Times,serif" font-size="10.00" fill="#000000">createdAt: DATE</text>
<polygon fill="none" stroke="#000000" points="0,-80 0,-102 114,-102 114,-80 0,-80"/>
<text text-anchor="start" x="5" y="-88" font-family="Times,serif" font-size="10.00" fill="#000000">updatedAt: DATE</text>
</g>
<!-- AdminAllocationRounds -->
<g id="node8" class="node">
<title>AdminAllocationRounds</title>
<polygon fill="#add8e6" stroke="transparent" points="340,-440 340,-462 450,-462 450,-440 340,-440"/>
<polygon fill="none" stroke="#000000" points="340,-440 340,-462 450,-462 450,-440 340,-440"/>
<text text-anchor="start" x="344.726" y="-448" font-family="Times,serif" font-size="10.00" fill="#000000">AdminAllocationRounds</text>
<polygon fill="none" stroke="#000000" points="340,-418 340,-440 450,-440 450,-418 340,-418"/>
<text text-anchor="start" x="345" y="-426" font-family="Times,serif" font-size="10.00" fill="#000000">id: NUMBER</text>
<polygon fill="none" stroke="#000000" points="340,-396 340,-418 450,-418 450,-396 340,-396"/>
<text text-anchor="start" x="345" y="-404" font-family="Times,serif" font-size="10.00" fill="#000000">group_id: NUMBER</text>
<polygon fill="none" stroke="#000000" points="340,-374 340,-396 450,-396 450,-374 340,-374"/>
<text text-anchor="start" x="345" y="-382" font-family="Times,serif" font-size="10.00" fill="#000000">group_type: ENUM</text>
<polygon fill="none" stroke="#000000" points="340,-352 340,-374 450,-374 450,-352 340,-352"/>
<text text-anchor="start" x="345" y="-360" font-family="Times,serif" font-size="10.00" fill="#000000">count: STRING</text>
<polygon fill="none" stroke="#000000" points="340,-330 340,-352 450,-352 450,-330 340,-330"/>
<text text-anchor="start" x="345" y="-338" font-family="Times,serif" font-size="10.00" fill="#000000">publication_date: DATE</text>
<polygon fill="none" stroke="#000000" points="340,-308 340,-330 450,-330 450,-308 340,-308"/>
<text text-anchor="start" x="345" y="-316" font-family="Times,serif" font-size="10.00" fill="#000000">event_id: STRING</text>
<polygon fill="none" stroke="#000000" points="340,-286 340,-308 450,-308 450,-286 340,-286"/>
<text text-anchor="start" x="345" y="-294" font-family="Times,serif" font-size="10.00" fill="#000000">record_status: ENUM</text>
<polygon fill="none" stroke="#000000" points="340,-264 340,-286 450,-286 450,-264 340,-264"/>
<text text-anchor="start" x="345" y="-272" font-family="Times,serif" font-size="10.00" fill="#000000">allocation_type: ENUM</text>
<polygon fill="none" stroke="#000000" points="340,-242 340,-264 450,-264 450,-242 340,-242"/>
<text text-anchor="start" x="345" y="-250" font-family="Times,serif" font-size="10.00" fill="#000000">createdAt: DATE</text>
<polygon fill="none" stroke="#000000" points="340,-220 340,-242 450,-242 450,-220 340,-220"/>
<text text-anchor="start" x="345" y="-228" font-family="Times,serif" font-size="10.00" fill="#000000">updatedAt: DATE</text>
</g>
<!-- MemberRoles -->
<g id="node9" class="node">
<title>MemberRoles</title>
<polygon fill="#add8e6" stroke="transparent" points="340,-154 340,-176 438,-176 438,-154 340,-154"/>
<polygon fill="none" stroke="#000000" points="340,-154 340,-176 438,-176 438,-154 340,-154"/>
<text text-anchor="start" x="360.6745" y="-162" font-family="Times,serif" font-size="10.00" fill="#000000">MemberRoles</text>
<polygon fill="none" stroke="#000000" points="340,-132 340,-154 438,-154 438,-132 340,-132"/>
<text text-anchor="start" x="345" y="-140" font-family="Times,serif" font-size="10.00" fill="#000000">id: NUMBER</text>
<polygon fill="none" stroke="#000000" points="340,-110 340,-132 438,-132 438,-110 340,-110"/>
<text text-anchor="start" x="345" y="-118" font-family="Times,serif" font-size="10.00" fill="#000000">user_id: NUMBER</text>
<polygon fill="none" stroke="#000000" points="340,-88 340,-110 438,-110 438,-88 340,-88"/>
<text text-anchor="start" x="345" y="-96" font-family="Times,serif" font-size="10.00" fill="#000000">group_id: NUMBER</text>
<polygon fill="none" stroke="#000000" points="340,-66 340,-88 438,-88 438,-66 340,-66"/>
<text text-anchor="start" x="344.987" y="-74" font-family="Times,serif" font-size="10.00" fill="#000000">record_status: ENUM</text>
<polygon fill="none" stroke="#000000" points="340,-44 340,-66 438,-66 438,-44 340,-44"/>
<text text-anchor="start" x="345" y="-52" font-family="Times,serif" font-size="10.00" fill="#000000">role: STRING</text>
<polygon fill="none" stroke="#000000" points="340,-22 340,-44 438,-44 438,-22 340,-22"/>
<text text-anchor="start" x="345" y="-30" font-family="Times,serif" font-size="10.00" fill="#000000">createdAt: DATE</text>
<polygon fill="none" stroke="#000000" points="340,0 340,-22 438,-22 438,0 340,0"/>
<text text-anchor="start" x="345" y="-8" font-family="Times,serif" font-size="10.00" fill="#000000">updatedAt: DATE</text>
</g>
</g>
</svg>
