<?xml version="1.0" encoding="UTF-8" standalone="no"?>
<!DOCTYPE svg PUBLIC "-//W3C//DTD SVG 1.1//EN"
 "http://www.w3.org/Graphics/SVG/1.1/DTD/svg11.dtd">
<!-- Generated by graphviz version 2.40.1 (20161225.0304)
 -->
<!-- Title: models_diagram Pages: 1 -->
<svg width="732pt" height="881pt"
 viewBox="0.00 0.00 732.00 881.00" xmlns="http://www.w3.org/2000/svg" xmlns:xlink="http://www.w3.org/1999/xlink">
<g id="graph0" class="graph" transform="scale(1 1) rotate(0) translate(36 845)">
<title>models_diagram</title>
<polygon fill="#ffffff" stroke="transparent" points="-36,36 -36,-845 696,-845 696,36 -36,36"/>
<!-- Audits -->
<g id="node1" class="node">
<title>Audits</title>
<polygon fill="#add8e6" stroke="transparent" points="1,-259 1,-281 114,-281 114,-259 1,-259"/>
<polygon fill="none" stroke="#000000" points="1,-259 1,-281 114,-281 114,-259 1,-259"/>
<text text-anchor="start" x="44.167" y="-267" font-family="Times,serif" font-size="10.00" fill="#000000">Audits</text>
<polygon fill="none" stroke="#000000" points="1,-237 1,-259 114,-259 114,-237 1,-237"/>
<text text-anchor="start" x="6" y="-245" font-family="Times,serif" font-size="10.00" fill="#000000">id: NUMBER</text>
<polygon fill="none" stroke="#000000" points="1,-215 1,-237 114,-237 114,-215 1,-215"/>
<text text-anchor="start" x="6" y="-223" font-family="Times,serif" font-size="10.00" fill="#000000">record_status: ENUM</text>
<polygon fill="none" stroke="#000000" points="1,-193 1,-215 114,-215 114,-193 1,-193"/>
<text text-anchor="start" x="6" y="-201" font-family="Times,serif" font-size="10.00" fill="#000000">data_type: STRING</text>
<polygon fill="none" stroke="#000000" points="1,-171 1,-193 114,-193 114,-171 1,-171"/>
<text text-anchor="start" x="6" y="-179" font-family="Times,serif" font-size="10.00" fill="#000000">updated_by: STRING</text>
<polygon fill="none" stroke="#000000" points="1,-149 1,-171 114,-171 114,-149 1,-149"/>
<text text-anchor="start" x="5.9835" y="-157" font-family="Times,serif" font-size="10.00" fill="#000000">related_entity: NUMBER</text>
<polygon fill="none" stroke="#000000" points="1,-127 1,-149 114,-149 114,-127 1,-127"/>
<text text-anchor="start" x="6" y="-135" font-family="Times,serif" font-size="10.00" fill="#000000">createdAt: DATE</text>
<polygon fill="none" stroke="#000000" points="1,-105 1,-127 114,-127 114,-105 1,-105"/>
<text text-anchor="start" x="6" y="-113" font-family="Times,serif" font-size="10.00" fill="#000000">updatedAt: DATE</text>
</g>
<!-- Group -->
<g id="node2" class="node">
<title>Group</title>
<polygon fill="#add8e6" stroke="transparent" points="147,-572 147,-594 332,-594 332,-572 147,-572"/>
<polygon fill="none" stroke="#000000" points="147,-572 147,-594 332,-594 332,-572 147,-572"/>
<text text-anchor="start" x="226.726" y="-580" font-family="Times,serif" font-size="10.00" fill="#000000">Group</text>
<polygon fill="none" stroke="#000000" points="147,-550 147,-572 332,-572 332,-550 147,-550"/>
<text text-anchor="start" x="152" y="-558" font-family="Times,serif" font-size="10.00" fill="#000000">id: NUMBER</text>
<polygon fill="none" stroke="#000000" points="147,-528 147,-550 332,-550 332,-528 147,-528"/>
<text text-anchor="start" x="152" y="-536" font-family="Times,serif" font-size="10.00" fill="#000000">spark_id: NUMBER</text>
<polygon fill="none" stroke="#000000" points="147,-506 147,-528 332,-528 332,-506 147,-506"/>
<text text-anchor="start" x="152" y="-514" font-family="Times,serif" font-size="10.00" fill="#000000">group_name_en: STRING</text>
<polygon fill="none" stroke="#000000" points="147,-484 147,-506 332,-506 332,-484 147,-484"/>
<text text-anchor="start" x="152" y="-492" font-family="Times,serif" font-size="10.00" fill="#000000">group_name_he: STRING</text>
<polygon fill="none" stroke="#000000" points="147,-462 147,-484 332,-484 332,-462 147,-462"/>
<text text-anchor="start" x="152" y="-470" font-family="Times,serif" font-size="10.00" fill="#000000">group_desc_en: TEXT</text>
<polygon fill="none" stroke="#000000" points="147,-440 147,-462 332,-462 332,-440 147,-440"/>
<text text-anchor="start" x="152" y="-448" font-family="Times,serif" font-size="10.00" fill="#000000">group_desc_he: TEXT</text>
<polygon fill="none" stroke="#000000" points="147,-418 147,-440 332,-440 332,-418 147,-418"/>
<text text-anchor="start" x="152" y="-426" font-family="Times,serif" font-size="10.00" fill="#000000">group_character: TEXT</text>
<polygon fill="none" stroke="#000000" points="147,-396 147,-418 332,-418 332,-396 147,-396"/>
<text text-anchor="start" x="152" y="-404" font-family="Times,serif" font-size="10.00" fill="#000000">accept_families: BOOLEAN</text>
<polygon fill="none" stroke="#000000" points="147,-374 147,-396 332,-396 332,-374 147,-374"/>
<text text-anchor="start" x="152" y="-382" font-family="Times,serif" font-size="10.00" fill="#000000">child_friendly: BOOLEAN</text>
<polygon fill="none" stroke="#000000" points="147,-352 147,-374 332,-374 332,-352 147,-352"/>
<text text-anchor="start" x="152" y="-360" font-family="Times,serif" font-size="10.00" fill="#000000">web_published: BOOLEAN</text>
<polygon fill="none" stroke="#000000" points="147,-330 147,-352 332,-352 332,-330 147,-330"/>
<text text-anchor="start" x="152" y="-338" font-family="Times,serif" font-size="10.00" fill="#000000">facebook_url: STRING</text>
<polygon fill="none" stroke="#000000" points="147,-308 147,-330 332,-330 332,-308 147,-308"/>
<text text-anchor="start" x="151.605" y="-316" font-family="Times,serif" font-size="10.00" fill="#000000">group_is_new_members_open: BOOLEAN</text>
<polygon fill="none" stroke="#000000" points="147,-286 147,-308 332,-308 332,-286 147,-286"/>
<text text-anchor="start" x="152" y="-294" font-family="Times,serif" font-size="10.00" fill="#000000">group_type: ENUM</text>
<polygon fill="none" stroke="#000000" points="147,-264 147,-286 332,-286 332,-264 147,-264"/>
<text text-anchor="start" x="152" y="-272" font-family="Times,serif" font-size="10.00" fill="#000000">main_contact: NUMBER</text>
<polygon fill="none" stroke="#000000" points="147,-242 147,-264 332,-264 332,-242 147,-242"/>
<text text-anchor="start" x="152" y="-250" font-family="Times,serif" font-size="10.00" fill="#000000">sound_contact: NUMBER</text>
<polygon fill="none" stroke="#000000" points="147,-220 147,-242 332,-242 332,-220 147,-220"/>
<text text-anchor="start" x="152" y="-228" font-family="Times,serif" font-size="10.00" fill="#000000">moop_contact: NUMBER</text>
<polygon fill="none" stroke="#000000" points="147,-198 147,-220 332,-220 332,-198 147,-198"/>
<text text-anchor="start" x="152" y="-206" font-family="Times,serif" font-size="10.00" fill="#000000">safety_contact: NUMBER</text>
<polygon fill="none" stroke="#000000" points="147,-176 147,-198 332,-198 332,-176 147,-176"/>
<text text-anchor="start" x="152" y="-184" font-family="Times,serif" font-size="10.00" fill="#000000">contact_person_id: NUMBER</text>
<polygon fill="none" stroke="#000000" points="147,-154 147,-176 332,-176 332,-154 147,-154"/>
<text text-anchor="start" x="152" y="-162" font-family="Times,serif" font-size="10.00" fill="#000000">event_id: STRING</text>
<polygon fill="none" stroke="#000000" points="147,-132 147,-154 332,-154 332,-132 147,-132"/>
<text text-anchor="start" x="152" y="-140" font-family="Times,serif" font-size="10.00" fill="#000000">dream_id: STRING</text>
<polygon fill="none" stroke="#000000" points="147,-110 147,-132 332,-132 332,-110 147,-110"/>
<text text-anchor="start" x="152" y="-118" font-family="Times,serif" font-size="10.00" fill="#000000">camp_type: STRING</text>
<polygon fill="none" stroke="#000000" points="147,-88 147,-110 332,-110 332,-88 147,-88"/>
<text text-anchor="start" x="152" y="-96" font-family="Times,serif" font-size="10.00" fill="#000000">record_status: ENUM</text>
<polygon fill="none" stroke="#000000" points="147,-66 147,-88 332,-88 332,-66 147,-66"/>
<text text-anchor="start" x="152" y="-74" font-family="Times,serif" font-size="10.00" fill="#000000">group_status: ENUM</text>
<polygon fill="none" stroke="#000000" points="147,-44 147,-66 332,-66 332,-44 147,-44"/>
<text text-anchor="start" x="152" y="-52" font-family="Times,serif" font-size="10.00" fill="#000000">noise_level: ENUM</text>
<polygon fill="none" stroke="#000000" points="147,-22 147,-44 332,-44 332,-22 147,-22"/>
<text text-anchor="start" x="152" y="-30" font-family="Times,serif" font-size="10.00" fill="#000000">createdAt: DATE</text>
<polygon fill="none" stroke="#000000" points="147,0 147,-22 332,-22 332,0 147,0"/>
<text text-anchor="start" x="152" y="-8" font-family="Times,serif" font-size="10.00" fill="#000000">updatedAt: DATE</text>
</g>
<!-- GroupMember -->
<g id="node3" class="node">
<title>GroupMember</title>
<polygon fill="#add8e6" stroke="transparent" points="399,-682 399,-704 497,-704 497,-682 399,-682"/>
<polygon fill="none" stroke="#000000" points="399,-682 399,-704 497,-704 497,-682 399,-682"/>
<text text-anchor="start" x="418.2885" y="-690" font-family="Times,serif" font-size="10.00" fill="#000000">GroupMember</text>
<polygon fill="none" stroke="#000000" points="399,-660 399,-682 497,-682 497,-660 399,-660"/>
<text text-anchor="start" x="404" y="-668" font-family="Times,serif" font-size="10.00" fill="#000000">id: NUMBER</text>
<polygon fill="none" stroke="#000000" points="399,-638 399,-660 497,-660 497,-638 399,-638"/>
<text text-anchor="start" x="403.987" y="-646" font-family="Times,serif" font-size="10.00" fill="#000000">record_status: ENUM</text>
<polygon fill="none" stroke="#000000" points="399,-616 399,-638 497,-638 497,-616 399,-616"/>
<text text-anchor="start" x="404" y="-624" font-family="Times,serif" font-size="10.00" fill="#000000">user_id: NUMBER</text>
<polygon fill="none" stroke="#000000" points="399,-594 399,-616 497,-616 497,-594 399,-594"/>
<text text-anchor="start" x="404" y="-602" font-family="Times,serif" font-size="10.00" fill="#000000">unique_id: STRING</text>
<polygon fill="none" stroke="#000000" points="399,-572 399,-594 497,-594 497,-572 399,-572"/>
<text text-anchor="start" x="404" y="-580" font-family="Times,serif" font-size="10.00" fill="#000000">email: STRING</text>
<polygon fill="none" stroke="#000000" points="399,-550 399,-572 497,-572 497,-550 399,-550"/>
<text text-anchor="start" x="404" y="-558" font-family="Times,serif" font-size="10.00" fill="#000000">cell_phone: STRING</text>
<polygon fill="none" stroke="#000000" points="399,-528 399,-550 497,-550 497,-528 399,-528"/>
<text text-anchor="start" x="404" y="-536" font-family="Times,serif" font-size="10.00" fill="#000000">name: STRING</text>
<polygon fill="none" stroke="#000000" points="399,-506 399,-528 497,-528 497,-506 399,-506"/>
<text text-anchor="start" x="404" y="-514" font-family="Times,serif" font-size="10.00" fill="#000000">group_id: NUMBER</text>
<polygon fill="none" stroke="#000000" points="399,-484 399,-506 497,-506 497,-484 399,-484"/>
<text text-anchor="start" x="404" y="-492" font-family="Times,serif" font-size="10.00" fill="#000000">createdAt: DATE</text>
<polygon fill="none" stroke="#000000" points="399,-462 399,-484 497,-484 497,-462 399,-462"/>
<text text-anchor="start" x="404" y="-470" font-family="Times,serif" font-size="10.00" fill="#000000">updatedAt: DATE</text>
</g>
<!-- Allocations -->
<g id="node4" class="node">
<title>Allocations</title>
<polygon fill="#add8e6" stroke="transparent" points="378,-409 378,-431 496,-431 496,-409 378,-409"/>
<polygon fill="none" stroke="#000000" points="378,-409 378,-431 496,-431 496,-409 378,-409"/>
<text text-anchor="start" x="413.949" y="-417" font-family="Times,serif" font-size="10.00" fill="#000000">Allocations</text>
<polygon fill="none" stroke="#000000" points="378,-387 378,-409 496,-409 496,-387 378,-387"/>
<text text-anchor="start" x="383" y="-395" font-family="Times,serif" font-size="10.00" fill="#000000">id: NUMBER</text>
<polygon fill="none" stroke="#000000" points="378,-365 378,-387 496,-387 496,-365 378,-365"/>
<text text-anchor="start" x="383" y="-373" font-family="Times,serif" font-size="10.00" fill="#000000">record_status: ENUM</text>
<polygon fill="none" stroke="#000000" points="378,-343 378,-365 496,-365 496,-343 378,-343"/>
<text text-anchor="start" x="383" y="-351" font-family="Times,serif" font-size="10.00" fill="#000000">allocation_type: ENUM</text>
<polygon fill="none" stroke="#000000" points="378,-321 378,-343 496,-343 496,-321 378,-321"/>
<text text-anchor="start" x="383" y="-329" font-family="Times,serif" font-size="10.00" fill="#000000">allocated_by: NUMBER</text>
<polygon fill="none" stroke="#000000" points="378,-299 378,-321 496,-321 496,-299 378,-299"/>
<text text-anchor="start" x="383" y="-307" font-family="Times,serif" font-size="10.00" fill="#000000">allocated_to: NUMBER</text>
<polygon fill="none" stroke="#000000" points="378,-277 378,-299 496,-299 496,-277 378,-277"/>
<text text-anchor="start" x="383" y="-285" font-family="Times,serif" font-size="10.00" fill="#000000">related_group: NUMBER</text>
<polygon fill="none" stroke="#000000" points="378,-255 378,-277 496,-277 496,-255 378,-255"/>
<text text-anchor="start" x="382.7135" y="-263" font-family="Times,serif" font-size="10.00" fill="#000000">active_for_event: STRING</text>
<polygon fill="none" stroke="#000000" points="378,-233 378,-255 496,-255 496,-233 378,-233"/>
<text text-anchor="start" x="383" y="-241" font-family="Times,serif" font-size="10.00" fill="#000000">allocation_group: ENUM</text>
<polygon fill="none" stroke="#000000" points="378,-211 378,-233 496,-233 496,-211 378,-211"/>
<text text-anchor="start" x="383" y="-219" font-family="Times,serif" font-size="10.00" fill="#000000">createdAt: DATE</text>
<polygon fill="none" stroke="#000000" points="378,-189 378,-211 496,-211 496,-189 378,-189"/>
<text text-anchor="start" x="383" y="-197" font-family="Times,serif" font-size="10.00" fill="#000000">updatedAt: DATE</text>
</g>
<!-- Permissions -->
<g id="node5" class="node">
<title>Permissions</title>
<polygon fill="#add8e6" stroke="transparent" points="1,-513 1,-535 118,-535 118,-513 1,-513"/>
<polygon fill="none" stroke="#000000" points="1,-513 1,-535 118,-535 118,-513 1,-513"/>
<text text-anchor="start" x="35.3345" y="-521" font-family="Times,serif" font-size="10.00" fill="#000000">Permissions</text>
<polygon fill="none" stroke="#000000" points="1,-491 1,-513 118,-513 118,-491 1,-491"/>
<text text-anchor="start" x="6" y="-499" font-family="Times,serif" font-size="10.00" fill="#000000">id: NUMBER</text>
<polygon fill="none" stroke="#000000" points="1,-469 1,-491 118,-491 118,-469 1,-469"/>
<text text-anchor="start" x="6" y="-477" font-family="Times,serif" font-size="10.00" fill="#000000">user_id: NUMBER</text>
<polygon fill="none" stroke="#000000" points="1,-447 1,-469 118,-469 118,-447 1,-447"/>
<text text-anchor="start" x="6" y="-455" font-family="Times,serif" font-size="10.00" fill="#000000">record_status: ENUM</text>
<polygon fill="none" stroke="#000000" points="1,-425 1,-447 118,-447 118,-425 1,-425"/>
<text text-anchor="start" x="5.758" y="-433" font-family="Times,serif" font-size="10.00" fill="#000000">permission_type: STRING</text>
<polygon fill="none" stroke="#000000" points="1,-403 1,-425 118,-425 118,-403 1,-403"/>
<text text-anchor="start" x="6" y="-411" font-family="Times,serif" font-size="10.00" fill="#000000">entity_type: STRING</text>
<polygon fill="none" stroke="#000000" points="1,-381 1,-403 118,-403 118,-381 1,-381"/>
<text text-anchor="start" x="6" y="-389" font-family="Times,serif" font-size="10.00" fill="#000000">related_entity: NUMBER</text>
<polygon fill="none" stroke="#000000" points="1,-359 1,-381 118,-381 118,-359 1,-359"/>
<text text-anchor="start" x="6" y="-367" font-family="Times,serif" font-size="10.00" fill="#000000">permitted_by: NUMBER</text>
<polygon fill="none" stroke="#000000" points="1,-337 1,-359 118,-359 118,-337 1,-337"/>
<text text-anchor="start" x="6" y="-345" font-family="Times,serif" font-size="10.00" fill="#000000">createdAt: DATE</text>
<polygon fill="none" stroke="#000000" points="1,-315 1,-337 118,-337 118,-315 1,-315"/>
<text text-anchor="start" x="6" y="-323" font-family="Times,serif" font-size="10.00" fill="#000000">updatedAt: DATE</text>
</g>
<!-- LoggedUsers -->
<g id="node6" class="node">
<title>LoggedUsers</title>
<polygon fill="#add8e6" stroke="transparent" points="546,-594 546,-616 644,-616 644,-594 546,-594"/>
<polygon fill="none" stroke="#000000" points="546,-594 546,-616 644,-616 644,-594 546,-594"/>
<text text-anchor="start" x="568.3435" y="-602" font-family="Times,serif" font-size="10.00" fill="#000000">LoggedUsers</text>
<polygon fill="none" stroke="#000000" points="546,-572 546,-594 644,-594 644,-572 546,-572"/>
<text text-anchor="start" x="551" y="-580" font-family="Times,serif" font-size="10.00" fill="#000000">user_id: NUMBER</text>
<polygon fill="none" stroke="#000000" points="546,-550 546,-572 644,-572 644,-550 546,-550"/>
<text text-anchor="start" x="551" y="-558" font-family="Times,serif" font-size="10.00" fill="#000000">logged: BOOLEAN</text>
<polygon fill="none" stroke="#000000" points="546,-528 546,-550 644,-550 644,-528 546,-528"/>
<text text-anchor="start" x="551" y="-536" font-family="Times,serif" font-size="10.00" fill="#000000">email: STRING</text>
<polygon fill="none" stroke="#000000" points="546,-506 546,-528 644,-528 644,-506 546,-506"/>
<text text-anchor="start" x="550.987" y="-514" font-family="Times,serif" font-size="10.00" fill="#000000">record_status: ENUM</text>
<polygon fill="none" stroke="#000000" points="546,-484 546,-506 644,-506 644,-484 546,-484"/>
<text text-anchor="start" x="551" y="-492" font-family="Times,serif" font-size="10.00" fill="#000000">createdAt: DATE</text>
<polygon fill="none" stroke="#000000" points="546,-462 546,-484 644,-484 644,-462 546,-462"/>
<text text-anchor="start" x="551" y="-470" font-family="Times,serif" font-size="10.00" fill="#000000">updatedAt: DATE</text>
</g>
<!-- Request -->
<g id="node7" class="node">
<title>Request</title>
<polygon fill="#add8e6" stroke="transparent" points="546,-175 546,-197 660,-197 660,-175 546,-175"/>
<polygon fill="none" stroke="#000000" points="546,-175 546,-197 660,-197 660,-175 546,-175"/>
<text text-anchor="start" x="586.8925" y="-183" font-family="Times,serif" font-size="10.00" fill="#000000">Request</text>
<polygon fill="none" stroke="#000000" points="546,-153 546,-175 660,-175 660,-153 546,-153"/>
<text text-anchor="start" x="551" y="-161" font-family="Times,serif" font-size="10.00" fill="#000000">id: NUMBER</text>
<polygon fill="none" stroke="#000000" points="546,-131 546,-153 660,-153 660,-131 546,-131"/>
<text text-anchor="start" x="550.652" y="-139" font-family="Times,serif" font-size="10.00" fill="#000000">created_by_id: NUMBER</text>
<polygon fill="none" stroke="#000000" points="546,-109 546,-131 660,-131 660,-109 546,-109"/>
<text text-anchor="start" x="551" y="-117" font-family="Times,serif" font-size="10.00" fill="#000000">related_id: NUMBER</text>
<polygon fill="none" stroke="#000000" points="546,-87 546,-109 660,-109 660,-87 546,-87"/>
<text text-anchor="start" x="551" y="-95" font-family="Times,serif" font-size="10.00" fill="#000000">related_type: ENUM</text>
<polygon fill="none" stroke="#000000" points="546,-65 546,-87 660,-87 660,-65 546,-65"/>
<text text-anchor="start" x="551" y="-73" font-family="Times,serif" font-size="10.00" fill="#000000">data: STRING</text>
<polygon fill="none" stroke="#000000" points="546,-43 546,-65 660,-65 660,-43 546,-43"/>
<text text-anchor="start" x="551" y="-51" font-family="Times,serif" font-size="10.00" fill="#000000">createdAt: DATE</text>
<polygon fill="none" stroke="#000000" points="546,-21 546,-43 660,-43 660,-21 546,-21"/>
<text text-anchor="start" x="551" y="-29" font-family="Times,serif" font-size="10.00" fill="#000000">updatedAt: DATE</text>
</g>
<!-- AdminAllocationRounds -->
<g id="node8" class="node">
<title>AdminAllocationRounds</title>
<polygon fill="#add8e6" stroke="transparent" points="0,-787 0,-809 110,-809 110,-787 0,-787"/>
<polygon fill="none" stroke="#000000" points="0,-787 0,-809 110,-809 110,-787 0,-787"/>
<text text-anchor="start" x="4.726" y="-795" font-family="Times,serif" font-size="10.00" fill="#000000">AdminAllocationRounds</text>
<polygon fill="none" stroke="#000000" points="0,-765 0,-787 110,-787 110,-765 0,-765"/>
<text text-anchor="start" x="5" y="-773" font-family="Times,serif" font-size="10.00" fill="#000000">id: NUMBER</text>
<polygon fill="none" stroke="#000000" points="0,-743 0,-765 110,-765 110,-743 0,-743"/>
<text text-anchor="start" x="5" y="-751" font-family="Times,serif" font-size="10.00" fill="#000000">group_id: NUMBER</text>
<polygon fill="none" stroke="#000000" points="0,-721 0,-743 110,-743 110,-721 0,-721"/>
<text text-anchor="start" x="5" y="-729" font-family="Times,serif" font-size="10.00" fill="#000000">group_type: ENUM</text>
<polygon fill="none" stroke="#000000" points="0,-699 0,-721 110,-721 110,-699 0,-699"/>
<text text-anchor="start" x="5" y="-707" font-family="Times,serif" font-size="10.00" fill="#000000">count: STRING</text>
<polygon fill="none" stroke="#000000" points="0,-677 0,-699 110,-699 110,-677 0,-677"/>
<text text-anchor="start" x="5" y="-685" font-family="Times,serif" font-size="10.00" fill="#000000">publication_date: DATE</text>
<polygon fill="none" stroke="#000000" points="0,-655 0,-677 110,-677 110,-655 0,-655"/>
<text text-anchor="start" x="5" y="-663" font-family="Times,serif" font-size="10.00" fill="#000000">event_id: STRING</text>
<polygon fill="none" stroke="#000000" points="0,-633 0,-655 110,-655 110,-633 0,-633"/>
<text text-anchor="start" x="5" y="-641" font-family="Times,serif" font-size="10.00" fill="#000000">record_status: ENUM</text>
<polygon fill="none" stroke="#000000" points="0,-611 0,-633 110,-633 110,-611 0,-611"/>
<text text-anchor="start" x="5" y="-619" font-family="Times,serif" font-size="10.00" fill="#000000">allocation_type: ENUM</text>
<polygon fill="none" stroke="#000000" points="0,-589 0,-611 110,-611 110,-589 0,-589"/>
<text text-anchor="start" x="5" y="-597" font-family="Times,serif" font-size="10.00" fill="#000000">createdAt: DATE</text>
<polygon fill="none" stroke="#000000" points="0,-567 0,-589 110,-589 110,-567 0,-567"/>
<text text-anchor="start" x="5" y="-575" font-family="Times,serif" font-size="10.00" fill="#000000">updatedAt: DATE</text>
</g>
<!-- MemberRoles -->
<g id="node9" class="node">
<title>MemberRoles</title>
<polygon fill="#add8e6" stroke="transparent" points="546,-407 546,-429 644,-429 644,-407 546,-407"/>
<polygon fill="none" stroke="#000000" points="546,-407 546,-429 644,-429 644,-407 546,-407"/>
<text text-anchor="start" x="566.6745" y="-415" font-family="Times,serif" font-size="10.00" fill="#000000">MemberRoles</text>
<polygon fill="none" stroke="#000000" points="546,-385 546,-407 644,-407 644,-385 546,-385"/>
<text text-anchor="start" x="551" y="-393" font-family="Times,serif" font-size="10.00" fill="#000000">id: NUMBER</text>
<polygon fill="none" stroke="#000000" points="546,-363 546,-385 644,-385 644,-363 546,-363"/>
<text text-anchor="start" x="551" y="-371" font-family="Times,serif" font-size="10.00" fill="#000000">user_id: NUMBER</text>
<polygon fill="none" stroke="#000000" points="546,-341 546,-363 644,-363 644,-341 546,-341"/>
<text text-anchor="start" x="551" y="-349" font-family="Times,serif" font-size="10.00" fill="#000000">group_id: NUMBER</text>
<polygon fill="none" stroke="#000000" points="546,-319 546,-341 644,-341 644,-319 546,-319"/>
<text text-anchor="start" x="551" y="-327" font-family="Times,serif" font-size="10.00" fill="#000000">unique_id: STRING</text>
<polygon fill="none" stroke="#000000" points="546,-297 546,-319 644,-319 644,-297 546,-297"/>
<text text-anchor="start" x="550.987" y="-305" font-family="Times,serif" font-size="10.00" fill="#000000">record_status: ENUM</text>
<polygon fill="none" stroke="#000000" points="546,-275 546,-297 644,-297 644,-275 546,-275"/>
<text text-anchor="start" x="551" y="-283" font-family="Times,serif" font-size="10.00" fill="#000000">role: STRING</text>
<polygon fill="none" stroke="#000000" points="546,-253 546,-275 644,-275 644,-253 546,-253"/>
<text text-anchor="start" x="551" y="-261" font-family="Times,serif" font-size="10.00" fill="#000000">createdAt: DATE</text>
<polygon fill="none" stroke="#000000" points="546,-231 546,-253 644,-253 644,-231 546,-231"/>
<text text-anchor="start" x="551" y="-239" font-family="Times,serif" font-size="10.00" fill="#000000">updatedAt: DATE</text>
</g>
</g>
</svg>
